<?xml version="1.0" encoding="utf-8"?>
<svg viewBox="0 0 1227 1387"
          style="shape-rendering:geometricPrecision; text-rendering:geometricPrecision; image-rendering:optimizeQuality; fill-rule:evenodd; clip-rule:evenodd"
          xmlns="http://www.w3.org/2000/svg" class="app-logo-single h-10rem">
          <g>
            <path style="opacity:0.905" fill="#ffffff"
              d="M 589.5,105.5 C 595.833,105.5 602.167,105.5 608.5,105.5C 608.667,131.169 608.5,156.835 608,182.5C 583.958,182.934 560.125,180.434 536.5,175C 535.941,174.275 535.608,173.442 535.5,172.5C 543.379,152.075 552.879,132.408 564,113.5C 565.171,112.107 566.671,111.273 568.5,111C 575.631,109.214 582.631,107.381 589.5,105.5 Z" />
          </g>
          <g>
            <path style="opacity:0.913" fill="#ffffff"
              d="M 623.5,105.5 C 637.999,104.18 651.999,106.013 665.5,111C 678.623,131.078 688.623,152.578 695.5,175.5C 672.067,180.221 648.401,182.721 624.5,183C 623.505,157.241 623.172,131.408 623.5,105.5 Z" />
          </g>
          <g>
            <path style="opacity:0.813" fill="#ffffff"
              d="M 689.5,119.5 C 710.225,128.215 728.558,140.549 744.5,156.5C 745.452,158.045 745.785,159.712 745.5,161.5C 734.11,164.347 722.777,167.181 711.5,170C 704.829,152.801 697.496,135.968 689.5,119.5 Z" />
          </g>
          <g>
            <path style="opacity:0.793" fill="#ffffff"
              d="M 538.5,122.5 C 539.239,122.369 539.906,122.536 540.5,123C 532.951,138.43 525.951,154.097 519.5,170C 509.416,168.218 499.583,165.385 490,161.5C 489.219,160.056 489.386,158.723 490.5,157.5C 504.86,143.457 520.86,131.79 538.5,122.5 Z" />
          </g>
          <g>
            <path style="opacity:0.92" fill="#ffffff"
              d="M 755.5,172.5 C 756.978,172.238 758.311,172.571 759.5,173.5C 786.888,209.633 797.888,250.133 792.5,295C 773.456,295.82 754.456,295.654 735.5,294.5C 733.946,258.233 727.946,222.733 717.5,188C 717.755,186.674 718.422,185.674 719.5,185C 731.973,181.729 743.973,177.562 755.5,172.5 Z" />
          </g>
          <g>
            <path style="opacity:0.917" fill="#ffffff"
              d="M 477.5,173.5 C 489.771,177.985 502.104,182.319 514.5,186.5C 503.507,221.276 497.674,256.943 497,293.5C 496.25,294.126 495.416,294.626 494.5,295C 477.833,295.667 461.167,295.667 444.5,295C 438.499,249.842 449.499,209.342 477.5,173.5 Z" />
          </g>
          <g>
            <path style="opacity:0.926" fill="#ffffff"
              d="M 529.5,189.5 C 555.432,194.951 581.599,198.284 608,199.5C 608.833,231.172 608.667,262.839 607.5,294.5C 576.167,295.833 544.833,295.833 513.5,294.5C 513.31,258.639 518.644,223.639 529.5,189.5 Z" />
          </g>
          <g>
            <path style="opacity:0.939" fill="#ffffff"
              d="M 698.5,189.5 C 699.822,189.33 700.989,189.663 702,190.5C 712.279,224.398 718.112,259.064 719.5,294.5C 687.5,294.5 655.5,294.5 623.5,294.5C 623.5,262.5 623.5,230.5 623.5,198.5C 648.99,198.409 673.99,195.409 698.5,189.5 Z" />
          </g>
          <g>
            <path style="opacity:0.928" fill="#a5a3a3"
              d="M 523.5 715.5 C 523.328 716.492 523.662 717.158 524.5 717.5 C 524.973 718.906 525.973 719.573 527.5 719.5 C 531.017 721.424 534.684 723.091 538.5 724.5 C 540.102 726.074 542.102 726.741 544.5 726.5 C 544.5 726.833 544.5 727.167 544.5 727.5 C 545.568 728.434 546.901 728.768 548.5 728.5 C 548.833 728.5 549.167 728.5 549.5 728.5 C 563.825 734.382 578.158 740.049 592.5 745.5 C 592.611 746.117 592.944 746.617 593.5 747 C 622.141 756.807 651.474 763.641 681.5 767.5 C 681.833 767.5 682.167 767.5 682.5 767.5 C 683.833 767.5 685.167 767.5 686.5 767.5 C 689.345 768.344 692.345 769.01 695.5 769.5 C 709.298 771.161 723.298 771.828 737.5 771.5 C 737.5 770.5 737.5 769.5 737.5 768.5 C 786.263 768.14 831.596 755.306 873.5 730 C 905.596 709.867 925.096 681.034 932 643.5 C 938.446 608.64 937.446 573.973 929 539.5 C 919.622 499.034 907.622 459.368 893 420.5 C 886.565 410.081 882.065 398.915 879.5 387 C 880.966 382.546 883.132 382.379 886 386.5 C 923.365 433.277 950.365 485.61 967 543.5 C 977.05 582.949 978.05 622.616 970 662.5 C 953.689 721.477 917.855 763.977 862.5 790 C 830.881 803.655 797.881 811.821 763.5 814.5 C 739.842 814.026 716.175 813.026 692.5 811.5 C 689.375 810.521 686.042 810.187 682.5 810.5 C 682.389 809.883 682.056 809.383 681.5 809 C 659.986 805.573 638.653 801.74 617.5 797.5 C 594.654 791.774 572.321 784.44 550.5 775.5 C 549.833 932.666 544.441 771.869 542.5 771.5 C 540.901 771.768 539.568 771.434 538.5 770.5 C 538.027 769.094 537.027 768.427 535.5 768.5 C 533.316 766.415 530.649 765.415 527.5 765.5 C 524.947 763.416 521.947 762.083 518.5 761.5 C 513.91 759.872 509.577 757.705 505.5 755 C 504.207 754.51 502.873 754.343 501.5 754.5 C 404.768 706.621 324.935 638.621 262 550.5 C 233.844 509.677 213.344 465.177 200.5 417 C 200.735 416.127 201.069 415.293 201.5 414.5 C 200.787 412.224 200.287 409.891 200 407.5 C 199.333 387.833 199.333 368.167 200 348.5 C 204 319.166 216.5 294.166 237.5 273.5 C 287.904 226.025 347.904 204.025 417.5 207.5 C 417.5 209.167 417.5 210.833 417.5 212.5 C 372.302 220.462 330.302 236.628 291.5 261 C 262.983 284.857 244.816 315.024 237 351.5 C 232.557 386.649 236.89 420.649 250 453.5 C 311.263 571.927 402.43 659.261 523.5 715.5 Z" />
          </g>
          <g>
            <path style="opacity:0.887" fill="#ffffff"
              d="M 445.5,310.5 C 462.744,310.175 479.91,310.508 497,311.5C 497.414,347.679 503.247,382.845 514.5,417C 514.167,417.5 513.833,418 513.5,418.5C 476.646,391.463 453.979,355.463 445.5,310.5 Z" />
          </g>
          <g>
            <path style="opacity:0.937" fill="#ffffff"
              d="M 512.5,310.5 C 544.5,310.5 576.5,310.5 608.5,310.5C 608.667,342.168 608.5,373.835 608,405.5C 596.894,406.364 585.727,407.197 574.5,408C 559.142,410.106 543.808,412.273 528.5,414.5C 523.385,395.096 519.218,375.429 516,355.5C 513.924,340.563 512.758,325.563 512.5,310.5 Z" />
          </g>
          <g>
            <path style="opacity:0.942" fill="#ffffff"
              d="M 623.5,310.5 C 655.5,310.5 687.5,310.5 719.5,310.5C 717.96,345.861 712.294,380.528 702.5,414.5C 676.443,410.127 650.276,407.127 624,405.5C 623.5,373.835 623.333,342.168 623.5,310.5 Z" />
          </g>
          <g>
            <path style="opacity:0.901" fill="#ffffff"
              d="M 734.5,310.5 C 753.5,310.5 772.5,310.5 791.5,310.5C 782.395,356.766 758.561,393.433 720,420.5C 718.603,419.774 717.769,418.607 717.5,417C 728.214,382.311 733.88,346.811 734.5,310.5 Z" />
          </g>
          <g>
            <path style="opacity:0.813" fill="#ffffff"
              d="M 592.5,421.5 C 597.833,421.5 603.167,421.5 608.5,421.5C 608.5,431.833 608.5,442.167 608.5,452.5C 582.818,451.199 558.651,444.533 536,432.5C 535.189,429.307 536.189,428.307 539,429.5C 556.825,425.84 574.658,423.173 592.5,421.5 Z" />
          </g>
          <g>
            <path style="opacity:0.83" fill="#ffffff"
              d="M 623.5,421.5 C 647.709,422.338 671.709,425.005 695.5,429.5C 695.896,432.044 695.229,434.211 693.5,436C 671.474,446.774 648.141,452.274 623.5,452.5C 623.5,442.167 623.5,431.833 623.5,421.5 Z" />
          </g>
          <g>
            <path style="opacity:0.961" fill="#fff"
              d="M 737.5,768.5 C 733.42,769.768 729.086,770.435 724.5,770.5C 716.828,770.194 709.162,769.861 701.5,769.5C 696.731,768.111 691.731,767.444 686.5,767.5C 685.791,766.596 684.791,766.263 683.5,766.5C 683.831,744.993 683.497,723.66 682.5,702.5C 637.833,701.167 593.167,701.167 548.5,702.5C 547.507,710.65 547.174,718.983 547.5,727.5C 546.5,727.5 545.5,727.5 544.5,727.5C 544.5,727.167 544.5,726.833 544.5,726.5C 542.898,724.926 540.898,724.259 538.5,724.5C 534.684,723.091 531.017,721.424 527.5,719.5C 527.027,718.094 526.027,717.427 524.5,717.5C 523.662,717.158 523.328,716.492 523.5,715.5C 553.336,661.487 583.836,607.821 615,554.5C 616.261,554.759 617.261,555.426 618,556.5C 657.634,627.452 697.468,698.118 737.5,768.5 Z" />
          </g>
          <g />
          <g>
            <path style="opacity:0.945" fill="#fff"
              d="M 548.5,702.5 C 548.5,711.167 548.5,719.833 548.5,728.5C 546.901,728.768 545.568,728.434 544.5,727.5C 545.5,727.5 546.5,727.5 547.5,727.5C 547.174,718.983 547.507,710.65 548.5,702.5 Z" />
          </g>
          <g>
            <path style="opacity:1" fill="#fff"
              d="M 682.5,702.5 C 683.497,723.66 683.831,744.993 683.5,766.5C 684.791,766.263 685.791,766.596 686.5,767.5C 685.167,767.5 683.833,767.5 682.5,767.5C 682.5,745.833 682.5,724.167 682.5,702.5 Z" />
          </g>
          <g>
            <path style="opacity:1" fill="#fff"
              d="M 524.5,717.5 C 526.027,717.427 527.027,718.094 527.5,719.5C 525.973,719.573 524.973,718.906 524.5,717.5 Z" />
          </g>
          <g>
            <path style="opacity:1" fill="#fff"
              d="M 538.5,724.5 C 540.898,724.259 542.898,724.926 544.5,726.5C 542.102,726.741 540.102,726.074 538.5,724.5 Z" />
          </g>
          <g>
            <path style="opacity:0.986" fill="#fff"
              d="M 501.5,754.5 C 502.873,754.343 504.207,754.51 505.5,755C 509.577,757.705 513.91,759.872 518.5,761.5C 521.053,763.584 524.053,764.917 527.5,765.5C 529.684,767.585 532.351,768.585 535.5,768.5C 535.973,769.906 536.973,770.573 538.5,770.5C 539.568,771.434 540.901,771.768 542.5,771.5C 543.622,772.947 545.122,773.947 547,774.5C 547.5,932.166 547.667,1089.83 547.5,1247.5C 439.57,1248.66 331.57,1248.83 223.5,1248C 223.043,1247.59 222.709,1247.09 222.5,1246.5C 315.162,1082.04 408.162,918.036 501.5,754.5 Z" />
          </g>
          <g>
            <path style="opacity:0.678" fill="#fff"
              d="M 592.5,745.5 C 621.602,754.859 651.268,761.859 681.5,766.5C 681.5,766.833 681.5,767.167 681.5,767.5C 651.474,763.641 622.141,756.807 593.5,747C 592.944,746.617 592.611,746.117 592.5,745.5 Z" />
          </g>
          <g>
            <path style="opacity:1" fill="#fff"
              d="M 518.5,761.5 C 521.947,762.083 524.947,763.416 527.5,765.5C 524.053,764.917 521.053,763.584 518.5,761.5 Z" />
          </g>
          <g>
            <path style="opacity:1" fill="#fff"
              d="M 527.5,765.5 C 530.649,765.415 533.316,766.415 535.5,768.5C 532.351,768.585 529.684,767.585 527.5,765.5 Z" />
          </g>
          <g>
            <path style="opacity:1" fill="#fff"
              d="M 686.5,767.5 C 691.731,767.444 696.731,768.111 701.5,769.5C 699.5,769.5 697.5,769.5 695.5,769.5C 692.345,769.01 689.345,768.344 686.5,767.5 Z" />
          </g>
          <g>
            <path style="opacity:1" fill="#fff"
              d="M 535.5,768.5 C 537.027,768.427 538.027,769.094 538.5,770.5C 536.973,770.573 535.973,769.906 535.5,768.5 Z" />
          </g>
          <g>
            <path style="opacity:1" fill="#fff"
              d="M 737.5,768.5 C 737.5,769.5 737.5,770.5 737.5,771.5C 723.298,771.828 709.298,771.161 695.5,769.5C 697.5,769.5 699.5,769.5 701.5,769.5C 709.162,769.861 716.828,770.194 724.5,770.5C 729.086,770.435 733.42,769.768 737.5,768.5 Z" />
          </g>
          <g>
            <path style="opacity:0.925" fill="#fff"
              d="M 542.5,771.5 C 544.441,771.869 546.275,772.536 548,773.5C 548.5,931.166 548.667,1088.83 548.5,1246.5C 548.5,1247.17 548.167,1247.5 547.5,1247.5C 547.667,1089.83 547.5,932.166 547,774.5C 545.122,773.947 543.622,772.947 542.5,771.5 Z" />
          </g>
          <g>
            <path style="opacity:1" fill="#fff"
              d="M 617.5,797.5 C 638.653,801.74 659.986,805.573 681.5,809C 682.056,809.383 682.389,809.883 682.5,810.5C 682.5,956.5 682.5,1102.5 682.5,1248.5C 681.5,1102.67 681.167,956.668 681.5,810.5C 659.738,807.681 638.405,803.348 617.5,797.5 Z" />
          </g>
          <g>
            <path style="opacity:1" fill="#fff"
              d="M 682.5,810.5 C 686.042,810.187 689.375,810.521 692.5,811.5C 689.5,811.5 686.5,811.5 683.5,811.5C 683.5,956.833 683.5,1102.17 683.5,1247.5C 683.5,1248.17 683.167,1248.5 682.5,1248.5C 682.5,1102.5 682.5,956.5 682.5,810.5 Z" />
          </g>
          <g>
            <path style="opacity:0.987" fill="#fff"
              d="M 692.5,811.5 C 716.175,813.026 739.842,814.026 763.5,814.5C 844.082,957.334 924.916,1100 1006,1242.5C 1006.5,1244.47 1006.66,1246.47 1006.5,1248.5C 898.763,1248.83 791.096,1248.5 683.5,1247.5C 683.5,1102.17 683.5,956.833 683.5,811.5C 686.5,811.5 689.5,811.5 692.5,811.5 Z" />
          </g>
        </svg>